<svg width="25" height="24" viewBox="0 0 25 24" fill="none" xmlns="http://www.w3.org/2000/svg">
<path d="M15.5534 6.54999H6.11337C5.83337 6.54999 5.57337 6.55999 5.33337 6.56999C2.96337 6.70999 2.33337 7.57999 2.33337 10.28V10.86C2.33337 11.41 2.78337 11.86 3.33337 11.86H18.3334C18.8834 11.86 19.3334 11.41 19.3334 10.86V10.28C19.3334 7.29999 18.5734 6.54999 15.5534 6.54999Z" fill="#4F4F4F"/>
<path d="M3.33337 13.36C2.78337 13.36 2.33337 13.81 2.33337 14.36V17.27C2.33337 20.25 3.09337 21 6.11337 21H15.5534C18.5234 21 19.3034 20.28 19.3334 17.43V14.36C19.3334 13.81 18.8834 13.36 18.3334 13.36H3.33337ZM7.29337 18.56H5.58337C5.17337 18.56 4.83337 18.22 4.83337 17.81C4.83337 17.4 5.17337 17.06 5.58337 17.06H7.30337C7.71337 17.06 8.05337 17.4 8.05337 17.81C8.05337 18.22 7.71337 18.56 7.29337 18.56ZM12.8834 18.56H9.44337C9.03337 18.56 8.69337 18.22 8.69337 17.81C8.69337 17.4 9.03337 17.06 9.44337 17.06H12.8834C13.2934 17.06 13.6334 17.4 13.6334 17.81C13.6334 18.22 13.3034 18.56 12.8834 18.56Z" fill="#4F4F4F"/>
<path d="M22.333 13.3301V8.0901C22.333 4.9601 20.543 3.6001 17.843 3.6001H8.91299C8.15299 3.6001 7.47299 3.7101 6.87299 3.9401C6.40299 4.1101 5.98299 4.3601 5.64299 4.6901C5.46299 4.8601 5.60299 5.1401 5.86299 5.1401H16.733C18.983 5.1401 20.803 6.9601 20.803 9.2101V16.3801C20.803 16.6301 21.073 16.7701 21.253 16.5901C21.943 15.8601 22.333 14.7901 22.333 13.3301Z" fill="#4F4F4F"/>
</svg>
