<svg width="16" height="16" viewBox="0 0 16 16" fill="none" xmlns="http://www.w3.org/2000/svg">
<path d="M7.99992 1.33331C4.32659 1.33331 1.33325 4.32665 1.33325 7.99998C1.33325 11.6733 4.32659 14.6666 7.99992 14.6666C11.6733 14.6666 14.6666 11.6733 14.6666 7.99998C14.6666 4.32665 11.6733 1.33331 7.99992 1.33331ZM11.1866 6.46665L7.40659 10.2466C7.31325 10.34 7.18659 10.3933 7.05325 10.3933C6.91992 10.3933 6.79325 10.34 6.69992 10.2466L4.81325 8.35998C4.61992 8.16665 4.61992 7.84665 4.81325 7.65331C5.00659 7.45998 5.32659 7.45998 5.51992 7.65331L7.05325 9.18665L10.4799 5.75998C10.6733 5.56665 10.9933 5.56665 11.1866 5.75998C11.3799 5.95331 11.3799 6.26665 11.1866 6.46665Z" fill="#A93636"/>
</svg>
