 <svg width="25" height="24" viewBox="0 0 25 24" fill="none" xmlns="http://www.w3.org/2000/svg">
<path d="M7.66663 8H4.66663C3.56663 8 2.66663 7.1 2.66663 6V4C2.66663 2.9 3.56663 2 4.66663 2H7.66663C8.76663 2 9.66663 2.9 9.66663 4V6C9.66663 7.1 8.76663 8 7.66663 8Z" fill="#4F4F4F"/>
<path d="M21.4666 7H17.8666C17.2066 7 16.6666 6.46 16.6666 5.8V4.2C16.6666 3.54 17.2066 3 17.8666 3H21.4666C22.1266 3 22.6666 3.54 22.6666 4.2V5.8C22.6666 6.46 22.1266 7 21.4666 7Z" fill="#4F4F4F"/>
<path d="M21.4666 14.5H17.8666C17.2066 14.5 16.6666 13.96 16.6666 13.3V11.7C16.6666 11.04 17.2066 10.5 17.8666 10.5H21.4666C22.1266 10.5 22.6666 11.04 22.6666 11.7V13.3C22.6666 13.96 22.1266 14.5 21.4666 14.5Z" fill="#4F4F4F"/>
<path opacity="0.96" d="M16.6666 13.25C17.0766 13.25 17.4166 12.91 17.4166 12.5C17.4166 12.09 17.0766 11.75 16.6666 11.75H13.9166V5.75H16.6666C17.0766 5.75 17.4166 5.41 17.4166 5C17.4166 4.59 17.0766 4.25 16.6666 4.25H9.66663C9.25663 4.25 8.91663 4.59 8.91663 5C8.91663 5.41 9.25663 5.75 9.66663 5.75H12.4166V18C12.4166 19.52 13.6466 20.75 15.1666 20.75H16.6666C17.0766 20.75 17.4166 20.41 17.4166 20C17.4166 19.59 17.0766 19.25 16.6666 19.25H15.1666C14.4766 19.25 13.9166 18.69 13.9166 18V13.25H16.6666Z" fill="#4F4F4F"/>
<path d="M21.4666 22H17.8666C17.2066 22 16.6666 21.46 16.6666 20.8V19.2C16.6666 18.54 17.2066 18 17.8666 18H21.4666C22.1266 18 22.6666 18.54 22.6666 19.2V20.8C22.6666 21.46 22.1266 22 21.4666 22Z" fill="#4F4F4F"/>
</svg>
