<svg width="20" height="20" viewBox="0 0 20 20" fill="none" xmlns="http://www.w3.org/2000/svg">
<path d="M7.50008 1.66667C5.31675 1.66667 3.54175 3.44167 3.54175 5.62501C3.54175 7.76667 5.21675 9.50001 7.40008 9.57501C7.46675 9.56667 7.53341 9.56667 7.58341 9.57501C7.60008 9.57501 7.60841 9.57501 7.62508 9.57501C7.63341 9.57501 7.63341 9.57501 7.64175 9.57501C9.77508 9.50001 11.4501 7.76667 11.4584 5.62501C11.4584 3.44167 9.68341 1.66667 7.50008 1.66667Z" fill="#1C1C1C"/>
<path d="M11.734 11.7916C9.40903 10.2416 5.61737 10.2416 3.2757 11.7916C2.21737 12.4999 1.63403 13.4582 1.63403 14.4832C1.63403 15.5082 2.21737 16.4582 3.26737 17.1582C4.43403 17.9416 5.96737 18.3332 7.5007 18.3332C9.03403 18.3332 10.5674 17.9416 11.734 17.1582C12.784 16.4499 13.3674 15.4999 13.3674 14.4666C13.359 13.4416 12.784 12.4916 11.734 11.7916Z" fill="#1C1C1C"/>
<path d="M16.6578 6.11675C16.7911 7.73342 15.6411 9.15009 14.0495 9.34175C14.0411 9.34175 14.0411 9.34175 14.0328 9.34175H14.0078C13.9578 9.34175 13.9078 9.34175 13.8661 9.35842C13.0578 9.40009 12.3161 9.14175 11.7578 8.66675C12.6161 7.90009 13.1078 6.75009 13.0078 5.50009C12.9495 4.82509 12.7161 4.20842 12.3661 3.68342C12.6828 3.52509 13.0495 3.42509 13.4245 3.39176C15.0578 3.25009 16.5161 4.46675 16.6578 6.11675Z" fill="#1C1C1C"/>
<path d="M18.3251 13.825C18.2584 14.6333 17.7418 15.3333 16.8751 15.8083C16.0418 16.2667 14.9918 16.4833 13.9501 16.4583C14.5501 15.9167 14.9001 15.2417 14.9668 14.525C15.0501 13.4917 14.5584 12.5 13.5751 11.7083C13.0168 11.2667 12.3668 10.9167 11.6584 10.6583C13.5001 10.125 15.8168 10.4833 17.2418 11.6333C18.0084 12.25 18.4001 13.025 18.3251 13.825Z" fill="#1C1C1C"/>
</svg>
