<svg width="20" height="20" viewBox="0 0 20 20" fill="none" xmlns="http://www.w3.org/2000/svg">
<path fill-rule="evenodd" clip-rule="evenodd" d="M9.1665 1.66406C5.02437 1.66406 1.6665 5.02193 1.6665 9.16406C1.6665 13.3062 5.02437 16.6641 9.1665 16.6641C10.9373 16.6641 12.5649 16.0503 13.8479 15.024L16.9106 18.0867C17.236 18.4121 17.7637 18.4121 18.0891 18.0867C18.4145 17.7612 18.4145 17.2336 18.0891 16.9081L15.0264 13.8455C16.0528 12.5624 16.6665 10.9349 16.6665 9.16406C16.6665 5.02193 13.3086 1.66406 9.1665 1.66406ZM3.33317 9.16406C3.33317 5.9424 5.94484 3.33073 9.1665 3.33073C12.3882 3.33073 14.9998 5.9424 14.9998 9.16406C14.9998 12.3857 12.3882 14.9974 9.1665 14.9974C5.94484 14.9974 3.33317 12.3857 3.33317 9.16406Z" fill="#667185"/>
</svg>
