<svg width="25" height="24" viewBox="0 0 25 24" fill="none" xmlns="http://www.w3.org/2000/svg">
<path d="M18.8742 4.16965L13.3742 2.10965C12.8042 1.89965 11.8742 1.89965 11.3042 2.10965L5.80416 4.16965C4.74416 4.56965 3.88416 5.80965 3.88416 6.93965V15.0396C3.88416 15.8496 4.41416 16.9196 5.06416 17.3996L10.5642 21.5096C11.5342 22.2396 13.1242 22.2396 14.0942 21.5096L19.5942 17.3996C20.2442 16.9096 20.7742 15.8496 20.7742 15.0396V6.93965C20.7842 5.80965 19.9242 4.56965 18.8742 4.16965ZM13.0842 12.8696V15.4996C13.0842 15.9096 12.7442 16.2496 12.3342 16.2496C11.9242 16.2496 11.5842 15.9096 11.5842 15.4996V12.8696C10.5742 12.5496 9.83416 11.6096 9.83416 10.4996C9.83416 9.11965 10.9542 7.99965 12.3342 7.99965C13.7142 7.99965 14.8342 9.11965 14.8342 10.4996C14.8342 11.6196 14.0942 12.5496 13.0842 12.8696Z" fill="#1C1C1C"/>
</svg>
